<?xml version="1.0" encoding="UTF-8"?>
<!DOCTYPE svg PUBLIC "-//W3C//DTD SVG 1.1//EN" "http://www.w3.org/Graphics/SVG/1.1/DTD/svg11.dtd">
<!-- Creator: CorelDRAW 2019 (64-Bit) -->
<svg xmlns="http://www.w3.org/2000/svg" xml:space="preserve" width="56.0184mm" height="56.0182mm" version="1.1" style="shape-rendering:geometricPrecision; text-rendering:geometricPrecision; image-rendering:optimizeQuality; fill-rule:evenodd; clip-rule:evenodd"
viewBox="0 0 5587.7 5587.68"
 xmlns:xlink="http://www.w3.org/1999/xlink"
 xmlns:xodm="http://www.corel.com/coreldraw/odm/2003">
 <defs>
  <style type="text/css">
   <![CDATA[
    .fil0 {fill:#FEFEFE}
    .fil1 {fill:#E2343C}
    .fil2 {fill:#373435;fill-rule:nonzero}
   ]]>
  </style>
 </defs>
 <g id="Layer_x0020_1">
  <metadata id="CorelCorpID_0Corel-Layer"/>
  <path class="fil0" d="M2793.84 0c1543,0 2793.86,1250.83 2793.86,2793.81 0,1543 -1250.85,2793.87 -2793.86,2793.87 -1542.97,0 -2793.84,-1250.86 -2793.84,-2793.87 0,-1542.97 1250.86,-2793.81 2793.84,-2793.81z"/>
  <path class="fil0" d="M2793.24 800.35c1122.74,0 2033.19,906.69 2033.19,2024.7 0,1118.07 -910.46,2024.76 -2033.19,2024.76 -1122.73,0 -2033.22,-906.69 -2033.22,-2024.76 0,-1118.01 910.5,-2024.7 2033.22,-2024.7z"/>
  <path class="fil0" d="M2793.27 803.21c1116.42,0 2021.85,905.43 2021.85,2021.88 0,1116.45 -905.43,2021.91 -2021.85,2021.91 -1116.48,0 -2021.93,-905.46 -2021.93,-2021.91 0,-1116.45 905.45,-2021.88 2021.93,-2021.88zm4.07 1109.78c494.84,0 896.12,414.1 896.12,924.75 0,510.64 -401.28,924.74 -896.12,924.74 -494.83,0 -896.12,-414.1 -896.12,-924.74 0,-510.65 401.29,-924.75 896.12,-924.75z"/>
  <path class="fil1" d="M3792.94 1880.52c90.17,-212.61 231.81,-502.78 412.47,-502.07 134.55,131.35 250.9,281.28 344.81,445.7 -56.82,-18.56 -114.89,-30.75 -181.58,-24.81 -200.13,17.84 -267.65,142.98 -397.41,272.4 -147.59,147.11 -266.94,230.49 -397.42,304.08 -26.78,-47.83 -57.64,-92.88 -92.01,-134.83 168.51,-72.04 233.71,-177.88 311.15,-360.48z"/>
  <path class="fil1" d="M4031.18 2231.15c151.97,-176.06 377.73,-411.05 550.01,-350.55 87.29,164.87 152.45,343.2 191.55,531.1 -49.38,-36.12 -101.8,-66.53 -168.6,-81.63 -196.01,-44.29 -298.59,54.22 -461.76,137.69 -185.12,94.66 -324.11,137.54 -470.48,167.67 -11.68,-53.99 -27.89,-106.21 -48.28,-156.18l0.14 -0.03c183.11,-16.8 277.61,-97.66 407.43,-248.05z"/>
  <path class="fil1" d="M4150.96 2640.12c200.27,-121.71 490.21,-277.25 634.4,-161.76 19.49,112.65 29.75,228.5 29.75,346.73 0,73.73 -4.04,146.51 -11.74,218.19 -36.46,-50.86 -77.46,-97.13 -137.68,-132.82 -172.87,-102.42 -300.8,-40.22 -481.73,-11 -202.63,32.73 -347.02,31.19 -493.61,15.41 2.03,-25.43 3.1,-51.14 3.1,-77.12 0,-29.14 -1.36,-57.93 -3.93,-86.38 177.94,39.28 292.49,-8.55 461.43,-111.24z"/>
  <path class="fil1" d="M4139.56 3063.89c229.64,-54.99 556.54,-114.81 655.82,43.73 -26.76,191.31 -80.22,374.05 -156.63,544.32 -19.35,-61.23 -44.33,-119.39 -91.93,-173.13 -133.21,-150.44 -274.02,-130.36 -455.23,-157.93 -198.11,-30.15 -333.33,-74.3 -465.02,-132.15 19.89,-49.98 35.64,-102.08 46.87,-155.99 153.95,87.37 276.76,76.48 466.12,31.14z"/>
  <path class="fil1" d="M3996.55 3468.35c237.42,18.95 570.44,63.93 611.13,249.41 -84.23,170.81 -191.76,328.1 -318.59,467.51 0.8,-65.36 -4.64,-129.37 -33.73,-196.32 -80.16,-184.26 -220.22,-208.79 -383.96,-291.12 -173.66,-87.26 -286.99,-168.77 -391.57,-260.98 34.2,-41.44 64.92,-86.03 91.7,-133.3 116.56,122.87 235.58,149.63 425.02,164.81z"/>
  <path class="fil1" d="M3736.88 3807.19c221.29,91.76 526.48,238.24 504.19,428.87 -131.95,135.37 -282.67,252.29 -447.97,346.59 21.47,-62.99 36.72,-126.52 29.53,-200.45 -19.45,-199.99 -145.09,-266.5 -275.54,-395.24 -134.15,-132.39 -215.97,-242.2 -285.61,-358.07 45.45,-28.46 88.22,-61.04 127.9,-97.1 72.73,143.86 176.75,204.61 347.5,275.4z"/>
  <path class="fil1" d="M3387.6 4048.45c183.72,156.21 431.5,391.29 346.9,566.28 -165.26,87.12 -343.99,152.09 -532.28,190.84 40.31,-53.91 74.76,-110.11 90.74,-183.43 42.82,-196.34 -56.46,-298.15 -141.14,-460.68 -85.41,-163.94 -129.59,-291.75 -160.3,-420.81 52.41,-11.96 103.06,-28.62 151.57,-49.58 27.13,152.34 107,240.53 244.52,357.4z"/>
  <path class="fil1" d="M2980.52 4171.21c127.33,205.74 291.57,506.82 154.91,646.79 -111.24,18.98 -225.51,29 -342.15,29 -74.89,0 -148.8,-4.19 -221.6,-12.14 54.87,-38.94 104.98,-81.82 142.72,-146.74 100.97,-173.72 37.78,-301.08 7.07,-481.78 -30.94,-182.18 -33.83,-317.35 -23.45,-449.55 32.61,3.74 65.76,5.69 99.33,5.69 20.03,0 39.89,-0.76 59.57,-2.09 -19.43,150.93 29.51,258.83 123.61,410.83z"/>
  <path class="fil1" d="M2552.32 4162.52c57.58,235.18 120.71,572.5 -52.89,663.15 -190.1,-27.69 -371.63,-81.74 -540.74,-158.51 64.1,-20.05 124.93,-45.34 180.79,-95.32 149.71,-133.98 128.97,-274.66 155.62,-455.99 27.38,-186.34 67.43,-317.18 119.59,-441.8 47.41,23.14 97.07,42.09 148.57,56.46 -66.8,138.9 -53.76,257.07 -10.94,432.01z"/>
  <path class="fil1" d="M2149.27 4022.66c-17.65,241.01 -61.28,580.65 -253.45,614.5 -169.36,-84.06 -325.36,-191.06 -463.72,-317.1 66.12,0.49 130.81,-5.18 198.33,-35.07 183.73,-81.39 207.32,-221.57 288.47,-385.9 86.2,-174.43 167.02,-288.36 258.6,-393.63 37.9,37.51 79.03,71.56 122.84,101.77 -112.79,113.98 -137.6,231.64 -151.07,415.43z"/>
  <path class="fil1" d="M1809.19 3765.82c-90.4,222.6 -235.27,530.01 -426.9,507.13 -134.26,-130.9 -250.48,-280.21 -344.38,-443.97 61.91,20.33 124.47,34.36 196.88,26.81 199.79,-20.94 265.39,-147.08 393.23,-278.44 140.34,-144.3 255.31,-228.73 379.57,-302.43 24.95,47.86 53.76,93.19 86.18,135.51 -151.89,74.13 -213.18,179.52 -284.59,355.39z"/>
  <path class="fil1" d="M1553.64 3393.88c-157.06,180.17 -392.36,422.14 -565.85,342.01 -83.47,-165.12 -144.89,-343.26 -180.56,-530.5 50.91,38.24 104.65,70.71 174.03,86.75 195.75,45.23 298.82,-52.76 462.39,-135.4 185,-93.48 323.93,-135.74 470.02,-165.09 8.8,54.07 22.09,106.6 39.57,157.06 -177.28,17.73 -271.21,97.91 -399.6,245.16z"/>
  <path class="fil1" d="M1433.4 2963.14c-204.97,118.91 -502.32,270.52 -642.29,144.67 -12.93,-92.4 -19.77,-186.76 -19.77,-282.72 0,-94.01 6.55,-186.51 18.97,-277.1 35.19,51.08 75.07,97.69 134.04,134.29 170.75,105.95 299.89,46.44 481.36,20.97 208.68,-29.34 355.19,-23.88 505.49,-3.82 -6.55,45.11 -9.98,91.3 -9.98,138.31 0,8.28 0.12,16.54 0.32,24.78l-1.98 -0.49c-178.47,-43.98 -294.24,1.48 -466.15,101.11z"/>
  <path class="fil1" d="M1453.77 2538.71c-229.78,49.86 -556,102.5 -653.48,-55.61 32.02,-187.8 89.86,-366.81 169.85,-533.18 17.68,58.07 41.27,113.45 85.24,165.29 130.02,153.22 271.21,136.17 451.76,167.59 208.25,36.2 346.19,86.52 483.46,152 -23.08,49.08 -42.03,100.58 -56.49,154.07l-5.69 -3.43c-156.35,-96.65 -280.52,-88.89 -474.66,-46.72z"/>
  <path class="fil1" d="M1603.48 2140.64c-232.21,-22.9 -555.61,-72.43 -603.75,-249.49 86.91,-166.54 196.31,-319.44 324.19,-454.72 -0.65,59.11 5.18,117.6 30.46,178.87 76.68,185.71 216.25,212.86 378.49,298.2 185.89,97.78 301.48,187.53 411.39,291.18 -36.77,40.36 -70.05,84.12 -99.39,130.79l-3.96 -4.59c-119.19,-140.03 -239.73,-170.72 -437.43,-190.24z"/>
  <path class="fil1" d="M1868.61 1807.35c-212.24,-92.43 -501.96,-237.41 -498,-418.69 132.54,-131.26 283.15,-244.31 447.74,-335.1 -18.35,55.35 -30.4,112.18 -25.23,177.34 15.87,200.3 140.31,269.06 268.44,400.08 145.15,148.46 227.26,268.38 299.39,399 -47.46,27.35 -92.27,59 -133.9,94.47l-0.65 -1.56c-70.37,-169.85 -175.65,-236.17 -357.79,-315.54z"/>
  <path class="fil1" d="M2224.48 1571.26c-172.78,-152.79 -402.54,-378.89 -345.32,-549.93 164.58,-83.58 342.14,-145.21 528.82,-181.27 -34.08,46.61 -62.62,96.57 -77.63,159.55 -46.64,195.42 50.54,299.19 132.06,463.35 91.36,184.13 132.67,322.58 161.02,467.51 -53.97,10.95 -106.21,26.87 -156.21,47.35 -15.39,-180.73 -94.95,-275.88 -242.74,-406.55z"/>
  <path class="fil1" d="M2636.18 1456.31c-116.83,-198.07 -265.07,-482.89 -159.78,-628.3 103.24,-16.26 209.05,-24.81 316.87,-24.81 82.11,0 163,5.01 242.57,14.54 -46.61,33.74 -89.01,72.38 -122.61,127.45 -104.63,171.49 -44.18,300.2 -17.34,481.47 30,202.69 26.72,346.85 9.11,492.99 -35.3,-4.38 -71.22,-6.67 -107.66,-6.67l0 0c-18.46,0 -36.82,0.62 -55.01,1.79 39.88,-174.94 -6.5,-289.58 -106.15,-458.46z"/>
  <path class="fil1" d="M3058.89 1473.09c-50.77,-224.18 -104.93,-540.54 39.57,-646.94 188.93,28.62 369.22,83.44 537.2,160.56 -55.13,17.93 -107.68,41.8 -156.84,84.29 -152.06,131.36 -133.75,272.38 -163.57,453.22 -33.46,202.94 -80.87,339.44 -142.61,473.65 -48.65,-23.2 -99.64,-42.06 -152.53,-56.04 91.19,-154.29 82,-277.61 38.78,-468.74z"/>
  <path class="fil1" d="M3456.1 1618.12c20.2,-229.41 65.31,-547.94 236.2,-604.28 169.17,84.14 324.93,191.2 463.1,317.26 -58.46,0.14 -116.31,6.7 -176.6,32.36 -184.9,78.66 -210.55,218.53 -294.19,381.6 -94.55,184.5 -181.98,300.41 -282.75,410.12 -39.54,-37.34 -82.39,-71.02 -127.96,-100.61 135.79,-119.7 164.98,-240.16 182.2,-436.46z"/>
  <path class="fil2" d="M2115.25 2475.69l170.33 0 0 136.23 178.73 -136.23 226.81 0 -201.47 135.46 210.72 225.11 -209.81 0 -116.42 -148.07 -88.56 60.28 0 87.79 -170.33 0 0 -360.57zm648.33 0l171.18 0 0 360.57 -171.18 0 0 -360.57zm254.56 0l518.79 0 0 89.12 -174.23 0 0 271.44 -170.39 0 0 -271.44 -174.17 0 0 -89.12z"/>
  <path class="fil2" d="M2242.41 3118.98l0 24.61c-16.46,9.06 -35.47,13.58 -57.06,13.58 -17.48,0 -32.35,-3.53 -44.55,-10.57 -12.19,-7.04 -21.85,-16.75 -28.99,-29.14 -7.07,-12.39 -10.66,-25.76 -10.66,-40.16 0,-22.91 8.15,-42.14 24.44,-57.75 16.29,-15.59 36.37,-23.37 60.25,-23.37 16.49,0 34.81,4.28 54.95,12.88l0 24.15c-18.38,-10.43 -36.32,-15.64 -53.82,-15.64 -17.98,0 -32.9,5.69 -44.78,17.06 -11.85,11.34 -17.78,25.57 -17.78,42.68 0,17.23 5.83,31.42 17.51,42.53 11.65,11.09 26.61,16.64 44.78,16.64 19,0 37.61,-5.83 55.72,-17.49zm104.6 -122.81c24.21,0 44.38,7.67 60.47,23.03 16.15,15.32 24.21,34.61 24.21,57.72 0,23.16 -8.14,42.34 -24.38,57.47 -16.29,15.18 -36.8,22.76 -61.54,22.76 -23.65,0 -43.3,-7.58 -59.06,-22.76 -15.75,-15.13 -23.61,-34.17 -23.61,-57 0,-23.47 7.92,-42.88 23.75,-58.2 15.87,-15.36 35.93,-23.03 60.17,-23.03zm0.85 21.39c-17.96,0 -32.67,5.61 -44.21,16.83 -11.54,11.23 -17.34,25.58 -17.34,43.02 0,16.95 5.8,31 17.37,42.23 11.59,11.22 26.07,16.83 43.47,16.83 17.48,0 32.1,-5.72 43.78,-17.17 11.68,-11.46 17.52,-25.71 17.52,-42.8 0,-16.63 -5.84,-30.57 -17.52,-41.91 -11.68,-11.34 -26.07,-17.03 -43.07,-17.03zm111.69 -19.09l22.54 0 0 156.86 -22.54 0 0 -156.86zm181.87 0l21.25 0 0 156.86 -22.54 0 0 -122.04 -48.23 60.64 -4.19 0 -48.79 -60.64 0 122.04 -22.54 0 0 -156.86 21.61 0 51.88 64.43 51.56 -64.43zm108.13 156.86l-53.12 0 0 -156.86 41.13 0c12.96,0 23.08,1.73 30.37,5.21 7.24,3.5 12.79,8.29 16.58,14.39 3.85,6.08 5.78,13.18 5.78,21.19 0,15.41 -7.98,26.44 -23.96,33.12 11.45,2.18 20.56,6.9 27.35,14.14 6.78,7.24 10.18,15.95 10.18,26.02 0,8.03 -2.09,15.19 -6.19,21.47 -4.13,6.3 -10.15,11.4 -18.16,15.39 -7.97,3.96 -17.93,5.93 -29.95,5.93zm-11.25 -136.86l-19.32 0 0 47.18 14.93 0c11.97,0 20.48,-2.32 25.55,-6.88 5.06,-4.55 7.58,-10.46 7.58,-17.71 0,-15.07 -9.57,-22.59 -28.74,-22.59zm1.7 67.17l-21.02 0 0 49.69 22.12 0c12.27,0 20.59,-0.96 25,-2.88 4.36,-1.9 7.89,-4.87 10.52,-8.91 2.66,-4.05 3.99,-8.37 3.99,-13.01 0,-4.76 -1.42,-9.14 -4.22,-13.13 -2.79,-3.96 -6.78,-6.9 -11.96,-8.86 -5.18,-1.95 -13.3,-2.91 -24.44,-2.91zm140.59 -88.1l15.79 0 70.31 157.79 -22.99 0 -20.85 -46.47 -66.92 0 -19.57 46.47 -23.08 0 67.31 -157.79zm33.27 91.33l-25.49 -56.86 -23.73 56.86 49.22 0zm33.68 -90.4l131.1 0 0 20 -54.73 0 0 136.86 -22.54 0 0 -136.86 -53.82 0 0 -20zm214.34 -2.29c24.21,0 44.38,7.67 60.48,23.03 16.15,15.32 24.21,34.61 24.21,57.72 0,23.16 -8.15,42.34 -24.38,57.47 -16.3,15.18 -36.81,22.76 -61.55,22.76 -23.64,0 -43.3,-7.58 -59.05,-22.76 -15.76,-15.13 -23.62,-34.17 -23.62,-57 0,-23.47 7.92,-42.88 23.76,-58.2 15.87,-15.36 35.92,-23.03 60.16,-23.03zm0.85 21.39c-17.95,0 -32.67,5.61 -44.21,16.83 -11.54,11.23 -17.34,25.58 -17.34,43.02 0,16.95 5.8,31 17.37,42.23 11.6,11.22 26.07,16.83 43.47,16.83 17.49,0 32.11,-5.72 43.79,-17.17 11.68,-11.46 17.51,-25.71 17.51,-42.8 0,-16.63 -5.83,-30.57 -17.51,-41.91 -11.68,-11.34 -26.08,-17.03 -43.08,-17.03zm112.15 137.77l0 -156.86 39.32 0c15.89,0 28.48,3.9 37.78,11.77 9.31,7.86 13.99,18.46 13.99,31.9 0,9.11 -2.31,17 -6.87,23.65 -4.55,6.67 -11.08,11.65 -19.62,14.96 5.03,3.28 9.92,7.77 14.7,13.49 4.81,5.66 11.54,15.59 20.25,29.72 5.47,8.94 9.82,15.65 13.13,20.14l8.32 11.23 -26.73 0 -6.87 -10.35c-0.23,-0.37 -0.65,-0.99 -1.33,-1.93l-4.36 -6.16 -6.95 -11.45 -7.5 -12.28c-4.64,-6.44 -8.91,-11.56 -12.79,-15.35 -3.81,-3.85 -7.32,-6.56 -10.4,-8.26 -3.11,-1.68 -8.35,-2.52 -15.7,-2.52l-5.83 0 0 68.31 -22.54 0zm29.31 -137.77l-6.76 0 0 49.44 8.52 0c11.39,0 19.17,-0.97 23.39,-2.91 4.24,-1.96 7.52,-4.87 9.89,-8.8 2.32,-3.93 3.51,-8.4 3.51,-13.38 0,-4.96 -1.31,-9.46 -3.91,-13.44 -2.65,-3.99 -6.33,-6.82 -11.08,-8.46 -4.7,-1.68 -12.62,-2.46 -23.56,-2.46zm108.94 -19.09l89.01 0 0 20 -66.47 0 0 47.86 64.18 0 0 19.99 -64.18 0 0 49.02 68.54 0 0 20 -91.08 0 0 -156.86z"/>
  <path class="fil2" d="M753.14 4400.08l-122.18 -174.51 39.23 -27.49 91.33 130.41 93.9 -65.72 -88.28 -126.07 39.4 -27.57 88.28 126.06 95.71 -67.03 -94.27 -134.64 39.18 -27.46 125.12 178.73 -307.42 215.3zm-322.26 -541.01l-28.57 -58.52 228.7 55.15 104.52 -229.38 28.57 58.52 -83.73 182.97 196.43 48.17 28.77 58.97 -245.79 -60.22 -97.06 214.62 -28.83 -59 77.3 -168.79 -180.31 -42.48zm111.07 -588.2l57.14 -15.27c31.08,32.56 53.29,73.76 66.64,123.72 10.88,40.5 11.93,77.04 3.13,109.74 -8.62,32.53 -25.09,60.9 -49.27,85.04 -24.21,24.1 -52.9,40.65 -86.15,49.55 -52.9,14.14 -102.36,7.24 -148.43,-20.82 -46.16,-28.06 -76.71,-69.66 -91.47,-124.92 -10.27,-38.13 -11.54,-83.13 -4.22,-135.18l55.89 -14.96c-12.84,49 -13.85,93.74 -2.97,134.3 11.12,41.51 33.53,72.58 67.09,92.99 33.66,20.45 70.14,25.4 109.69,14.79 39.82,-10.63 68.93,-33.01 87.37,-66.86 18.35,-33.91 21.94,-71.93 10.71,-113.99 -11.79,-43.98 -36.91,-83.41 -75.15,-118.14zm-296.5 -67.11l-25.99 -211.45 47.6 -5.83 19.43 158.05 113.76 -13.97 -18.81 -152.76 47.78 -5.91 18.78 152.81 115.93 -14.25 -20.02 -163.2 47.46 -5.83 26.61 216.57 -372.53 45.76zm-31.56 -356.75l1.92 -53.77 326.71 11.43 5.92 -169.17 48.9 1.71 -7.78 222.93 -375.66 -13.12zm21.83 -355.42l10.26 -52.81 320.94 62.36 32.3 -166.14 48.03 9.37 -42.56 218.95 -368.97 -71.73zm63.98 -323.06l58.71 -204.8 46.1 13.24 -43.92 153.07 110.16 31.57 42.42 -147.96 46.3 13.3 -42.42 147.95 112.23 32.19 45.35 -158.05 46.01 13.21 -60.19 209.76 -360.76 -103.47zm257.92 -625.33l24.02 -45.17 331.88 176.48 -21.73 40.85 -373.29 86.09 255.31 135.74 -23.76 44.72 -331.85 -176.49 20.39 -38.43 376.58 -86.86 -257.56 -136.92zm541.44 -267.11l46.64 36.4c-7.32,44.44 -26.9,86.95 -58.72,127.71 -25.81,33.07 -54.36,55.83 -85.75,68.51 -31.2,12.7 -63.75,16.6 -97.55,11.88 -33.88,-4.9 -64.32,-17.79 -91.47,-39.01 -43.13,-33.68 -67.4,-77.38 -72.75,-131.1 -5.32,-53.7 9.56,-103.15 44.78,-148.2 24.32,-31.14 59.42,-59.28 105.41,-84.69l45.59 35.64c-46.84,19.21 -83.24,45.35 -109.06,78.4 -26.5,33.86 -37.81,70.43 -33.85,109.57 3.87,39.18 21.88,71.31 54.19,96.49 32.5,25.43 67.82,35.21 105.92,29.56 38.15,-5.75 70.68,-25.77 97.49,-60.05 28.03,-35.9 44.44,-79.65 49.13,-131.1zm-121.11 -277.13l153.27 -147.98 33.3 34.47 -114.55 110.59 79.65 82.45 110.67 -106.92 33.44 34.65 -110.71 106.91 81.17 84.04 118.23 -114.24 33.24 34.42 -156.95 151.6 -260.75 -270zm720.97 -82.7l-110.22 63.64 -187.95 -325.58 85.25 -49.19c26.89,-15.53 50,-23.96 69.17,-25.49 19.29,-1.5 36.46,1.82 51.71,9.85 15.33,8.14 27.66,20.59 37.28,37.2 18.47,31.96 15.1,64.4 -9.95,97.37 26.36,-9.25 50.97,-10.4 73.7,-3.47 22.8,7.01 40.2,20.9 52.28,41.91 9.64,16.63 13.85,33.91 12.92,51.87 -1.13,17.96 -7.43,35.87 -19.17,53.68 -11.82,17.71 -30.2,33.85 -55.01,48.2zm-187.53 -270.43l-40.11 23.14 56.52 97.83 30.99 -17.93c24.81,-14.33 39.8,-29.22 44.78,-44.83 5.01,-15.53 3.22,-30.8 -5.46,-45.82 -18.07,-31.25 -46.95,-35.38 -86.72,-12.39zm83.95 137.29l-43.56 25.15 59.57 103.26 45.93 -26.49c25.51,-14.74 41.6,-26.7 48.39,-35.93 6.76,-9.19 10.49,-19.62 11.2,-31.16 0.66,-11.63 -1.75,-22.23 -7.32,-31.82 -5.72,-9.93 -13.91,-17.32 -24.47,-22.23 -10.63,-4.78 -22.45,-6.13 -35.44,-4.07 -13.04,2.17 -31.14,9.92 -54.3,23.3zm147.19 -313.59l198.9 -76.34 17.17 44.72 -148.66 57.11 41.08 106.94 143.68 -55.12 17.26 44.94 -143.69 55.13 41.89 109.06 153.44 -58.94 17.2 44.69 -203.76 78.17 -134.49 -350.35zm556.43 -176.46l63.44 -14.62 -95.46 203.76 44.72 193.74 -53.65 12.36 -44.75 -193.69 -175.13 -141.3 63.44 -14.65 127.25 103.69 70.14 -149.28zm325.47 -46.69c57.98,-4.05 107.51,10.88 148.66,44.86 41.04,34.05 63.61,78.68 67.43,133.92 3.9,55.33 -12.42,102.39 -48.77,141.36 -36.35,38.95 -84.18,60.53 -143.37,64.66 -56.55,3.94 -104.99,-10.91 -145.18,-44.46 -40.2,-33.65 -62.11,-77.78 -65.93,-132.26 -3.9,-56.09 11.79,-103.66 47.15,-143.04 35.35,-39.31 81.99,-61.01 140.01,-65.05zm5.66 50.76c-42.91,3.03 -77.3,18.95 -102.98,47.72 -25.82,28.77 -37.26,64.01 -34.34,105.7 2.86,40.39 19.01,73.06 48.68,97.97 29.62,24.86 65.25,35.95 106.97,33.01 41.86,-2.91 75.78,-19.12 101.91,-48.4 26.13,-29.3 37.64,-64.37 34.79,-105.21 -2.77,-39.68 -19.04,-72.15 -48.97,-97.29 -29.92,-25.15 -65.19,-36.32 -106.06,-33.5zm657.52 -8.43l50.8 6.28 -45.82 373.07 -45.96 -5.63 -214.11 -317.66 -35.24 287.02 -50.23 -6.16 45.79 -373.07 43.19 5.32 216 320.37 35.58 -289.55zm111.41 412.3l134.52 -350.37 118.29 45.4c47.74,18.35 82.75,40.02 104.98,65 22.29,24.97 36.38,54.5 42.11,88.7 5.75,34.05 2.35,67.46 -10.26,100.3 -9,23.5 -22.14,44.12 -39.37,62.08 -17.31,17.93 -37.42,31.9 -60.45,41.66 -23.53,10.26 -48.17,15.24 -74.07,15.1 -15.16,0.06 -28.68,-1.05 -40.45,-3.59 -11.71,-2.43 -33.15,-9.71 -64.29,-21.62l-111.02 -42.65zm230.35 -262.28l-62.76 -24.1 -100.21 261.01 64.32 24.67c25.12,9.67 45.26,15.41 60.53,17.37 15.21,1.9 28.45,1.95 39.74,0.19 11.4,-1.67 22.34,-4.92 33.01,-9.67 34.47,-15.62 58.97,-42.54 73.68,-80.93 14.5,-37.67 13.6,-73.25 -2.74,-106.77 -5.94,-12.5 -13.97,-23.96 -23.85,-34.25 -9.98,-10.4 -20.02,-18.61 -30.2,-24.58 -10.21,-6.05 -27.35,-13.67 -51.51,-22.94zm500.99 187.92l180.65 112.85 -25.37 40.64 -135.09 -84.34 -60.7 97.18 130.5 81.54 -25.49 40.81 -130.53 -81.54 -61.91 99.05 139.42 87.12 -25.32 40.56 -185.09 -115.63 198.92 -318.24zm507.84 395.41l47.57 44.43 -233.28 30.44 -15.39 251.61 -47.6 -44.44 12.61 -200.84 -200.67 25.49 -48 -44.78 251.02 -31.85 13.78 -235.18 48.03 44.81 -11.71 185.26 183.65 -24.95zm-167.36 383.1l292.57 -236.9 74.98 92.66c22.54,27.8 33.01,56.2 31.34,84.94 -1.59,28.86 -15.08,53.48 -40.42,74.02 -17.06,13.81 -35.58,21.73 -55.5,23.79 -19.99,2.14 -38.94,-1.79 -56.79,-11.8 -17.9,-9.95 -38.07,-28.74 -60.45,-56.34l-25.01 -30.91 -126.65 102.58 -34.08 -42.03zm324.36 -121.44l-35.01 -43.25 -91.36 73.99 37.03 45.73c13.83,17.06 28.37,26.87 43.86,29.62 15.5,2.65 30.66,-1.93 45.59,-14.03 29.98,-24.29 29.9,-54.92 -0.11,-92.06zm188.03 181.89l106.52 184.49 -41.52 23.99 -79.65 -137.91 -99.25 57.32 76.97 133.25 -41.63 24.1 -77.03 -133.28 -101.14 58.38 82.22 142.35 -41.46 23.93 -109.06 -188.93 325.04 -187.69zm17.78 717.19l-54.84 22.17c-34.78,-28.54 -61.79,-66.75 -81.17,-114.72 -15.72,-38.86 -21.21,-74.98 -16.52,-108.47 4.61,-33.38 17.54,-63.58 38.55,-90.48 21.13,-26.87 47.58,-46.75 79.48,-59.68 50.77,-20.45 100.72,-19.69 149.9,2.54 49.17,22.23 84.58,59.85 105.98,112.88 14.85,36.6 21.65,81.08 20.65,133.58l-53.65 21.73c6.79,-50.23 2.35,-94.75 -13.38,-133.7 -16.09,-39.79 -42.11,-67.97 -77.98,-84.06 -35.83,-16.24 -72.69,-16.69 -110.67,-1.36 -38.21,15.44 -64.38,41.18 -78.52,76.99 -14.13,35.92 -13.04,74.1 3.25,114.47 17.09,42.22 46.81,78.29 88.92,108.1zm298.93 22.54l59.91 308.1 -47.12 9.17 -24.98 -128.58 -322.46 62.71 -10.29 -53.13 322.43 -62.64 -24.58 -126.52 47.09 -9.11zm66.84 508.21l1.33 37.92 -371.88 181.19 -1.93 -55.13 109.57 -53.88 -5.54 -159.72 -113.02 -43.39 -1.93 -55.15 383.39 148.15zm-215.8 86.37l133.95 -65.19 -138.06 -51.47 4.11 116.66zm222.79 162.33l-38.21 311.6 -47.63 -5.89 15.98 -129.93 -326.02 -40.06 6.56 -53.67 326.02 40.02 15.73 -127.91 47.57 5.84zm-65.47 422.84l-12.08 52.47 -366.25 -84.6 12.11 -52.41 366.22 84.54zm-111.81 381.95c-20.82,54.24 -55.35,92.88 -103.47,115.79 -48.22,22.8 -98.2,24.41 -149.93,4.56 -51.73,-19.91 -87.51,-54.56 -107.51,-103.95 -19.91,-49.43 -19.26,-101.93 2.03,-157.34 20.28,-52.87 54.22,-90.51 101.63,-112.74 47.46,-22.2 96.73,-23.41 147.76,-3.87 52.44,20.14 88.94,54.5 109.71,103.24 20.65,48.62 20.62,100.04 -0.23,154.32zm-48.43 -16.3c15.39,-40.16 15.48,-78.12 0.26,-113.53 -15.19,-35.55 -42.28,-60.78 -81.26,-75.77 -37.81,-14.51 -74.24,-13.67 -109.34,2.71 -35.07,16.29 -60.19,43.96 -75.12,82.99 -15.05,39.14 -14.76,76.79 0.74,112.82 15.58,36.03 42.42,61.31 80.72,76 37.12,14.25 73.4,13.24 108.84,-3.25 35.44,-16.47 60.5,-43.76 75.17,-81.97zm-270.39 602.59l-27.13 43.36 -318.73 -199.15 24.5 -39.29 378.38 -59.85 -245.22 -153.18 26.78 -42.94 318.81 199.15 -23.1 36.95 -381.63 60.38 247.34 154.58z"/>
 </g>
</svg>
